<svg id="SvgjsSvg1001" width="288" height="288" xmlns="http://www.w3.org/2000/svg" version="1.1" xmlns:xlink="http://www.w3.org/1999/xlink" xmlns:svgjs="http://svgjs.com/svgjs"><defs id="SvgjsDefs1002"></defs><g id="SvgjsG1008"><svg xmlns="http://www.w3.org/2000/svg" enable-background="new 0 0 512 512" viewBox="0 0 512 512" width="288" height="288"><path d="M483.86,219.3c-4.27-8.82-13.2-14.5-23.05-14.5h-51.2h-51.2V128V25.6c0-14.15-11.45-25.6-25.6-25.6h-153.6
		c-14.17,0-25.6,11.45-25.6,25.6v128v51.2h-51.2h-51.2c-9.88,0-18.8,5.68-23.08,14.5c-4.25,8.88-3.08,19.4,3.07,27.1l204.8,256
		c4.85,6.08,12.2,9.6,20,9.6c7.77,0,15.12-3.52,19.97-9.6l204.8-256C486.94,238.7,488.11,228.18,483.86,219.3z M256.01,445.42
		L104.46,256h74.75h25.6v-25.6v-76.8V51.2h102.4V128v102.4V256h25.6h74.73L256.01,445.42z" fill="#ffffff" class="color000 svgShape"></path></svg></g></svg>