<svg id="SvgjsSvg1011" width="288" height="288" xmlns="http://www.w3.org/2000/svg" version="1.1" xmlns:xlink="http://www.w3.org/1999/xlink" xmlns:svgjs="http://svgjs.com/svgjs"><defs id="SvgjsDefs1012"></defs><g id="SvgjsG1013"><svg xmlns="http://www.w3.org/2000/svg" enable-background="new 0 0 512 512" viewBox="0 0 512 512" width="288" height="288"><path d="M276.01,9.12c-9.76-12.16-30.25-12.16-40.01,0L31,265.37c-6.16,7.73-7.33,18.27-3.08,27.15
		C32.2,301.35,41.13,307,51.02,307h51.25h51.25v76.87v102.5c0,14.19,11.44,25.62,25.62,25.62h153.75
		c14.16,0,25.62-11.44,25.62-25.62V358.25V307h51.25h51.25c9.86,0,18.79-5.66,23.07-14.49c4.25-8.88,3.08-19.42-3.08-27.15
		L276.01,9.12z M332.89,255.76h-25.62v25.62v76.87v102.5h-102.5v-76.87v-102.5v-25.62h-25.62h-74.82L256.01,66.18l151.67,189.58
		H332.89z" fill="#ffffff" class="color000 svgShape"></path></svg></g></svg>